<svg width="48" height="48" viewBox="0 0 38 32" fill="none" xmlns="http://www.w3.org/2000/svg">
<g id="Group 56">
<path id="Vector" d="M10.5174 2.6456C9.87856 3.02739 9.34665 3.54108 8.96436 4.14519C8.58214 4.7493 8.36016 5.42707 8.31641 6.12398V10.0852C8.36016 10.7821 8.58214 11.4599 8.96436 12.064C9.34665 12.6682 9.87856 13.1818 10.5174 13.5636L15.0714 16.0189C16.2792 16.6573 17.2723 16.1335 17.2723 14.8567V1.4343C17.2723 0.157541 16.2792 -0.366216 15.0714 0.272162L10.5174 2.6456Z" fill="#8F9D9C"/>
<path id="Vector_2" d="M10.0427 14.4222C9.38152 14.121 8.65091 13.964 7.90994 13.964C7.16897 13.964 6.43837 14.121 5.77717 14.4222L2.13712 16.3006C1.51687 16.6657 1.00037 17.1569 0.62915 17.7346C0.257994 18.3123 0.0424764 18.9604 0 19.6269V24.2289C0 25.4498 0.964355 25.9507 2.13712 25.3403L14.4733 18.9225C15.6461 18.3121 15.6461 17.3181 14.4733 16.7076L10.0427 14.4222Z" fill="#8F9D9C"/>
<path id="Vector_3" d="M26.587 2.6456C27.2258 3.02739 27.7577 3.54108 28.1399 4.14519C28.5222 4.7493 28.7442 5.42707 28.7879 6.12398V10.0852C28.7442 10.7821 28.5222 11.4599 28.1399 12.064C27.7577 12.6682 27.2258 13.1818 26.587 13.5636L22.024 16.0189C20.8162 16.6573 19.832 16.1335 19.832 14.8567V1.4343C19.832 0.157541 20.8162 -0.366216 22.024 0.272162L26.587 2.6456Z" fill="#8F9D9C"/>
<path id="Vector_4" d="M26.644 14.4222C27.3332 14.121 28.0946 13.964 28.8669 13.964C29.6391 13.964 30.4006 14.121 31.0898 14.4222L34.8836 16.3006C35.5289 16.6661 36.0659 17.1576 36.4512 17.7353C36.8365 18.3131 37.0594 18.961 37.102 19.6269V24.2289C37.102 25.4498 36.1059 25.9507 34.8836 25.3403L22.0262 18.9225C20.8038 18.3121 20.8038 17.3181 22.0262 16.7076L26.644 14.4222Z" fill="#8F9D9C"/>
<path id="Vector_5" d="M7.87185 31.5424C8.53343 31.8432 9.26442 32 10.0058 32C10.7472 32 11.4782 31.8432 12.1398 31.5424L15.7819 29.6587C16.4016 29.292 16.917 28.7998 17.2869 28.2216C17.6567 27.6433 17.8706 26.9951 17.9115 26.3291V21.7333C17.9115 20.514 16.9554 20.0138 15.7819 20.6234L3.4387 27.0325C2.26523 27.6422 2.26523 28.6348 3.4387 29.2445L7.87185 31.5424Z" fill="#8F9D9C"/>
<path id="Vector_6" d="M18.5508 26.3329C18.5941 26.9973 18.8173 27.6437 19.2025 28.2202C19.5878 28.7967 20.1243 29.2872 20.7692 29.6525L24.563 31.5427C25.2522 31.8434 26.0136 32 26.7859 32C27.5582 32 28.3196 31.8434 29.0088 31.5427L33.6266 29.2385C34.849 28.6293 34.849 27.6373 33.6266 27.0281L20.7692 20.6232C19.5468 20.014 18.5508 20.5139 18.5508 21.7323V26.3329Z" fill="#8F9D9C"/>
</g>
</svg>
